<svg width="1181" height="1578" xmlns="http://www.w3.org/2000/svg" xmlns:xlink="http://www.w3.org/1999/xlink" xml:space="preserve" overflow="hidden"><g transform="translate(-1456 -87)"><path d="M1459.02 89.6034 1694.42 89.6034 1694.42 230.738 1459.02 230.738Z" fill="#4472C4" fill-rule="evenodd"/><path d="M1694.42 89.6034 1976.78 89.6034 1976.78 230.738 1694.42 230.738Z" fill="#4472C4" fill-rule="evenodd"/><path d="M1976.78 89.6034 2302.13 89.6034 2302.13 230.738 1976.78 230.738Z" fill="#4472C4" fill-rule="evenodd"/><path d="M2302.13 89.6034 2627.48 89.6034 2627.48 230.738 2302.13 230.738Z" fill="#4472C4" fill-rule="evenodd"/><path d="M1459.02 230.738 1694.42 230.738 1694.42 409.392 1459.02 409.392Z" fill="#4472C4" fill-rule="evenodd"/><path d="M1694.42 230.738 1976.78 230.738 1976.78 409.392 1694.42 409.392Z" fill="#CFD5EA" fill-rule="evenodd"/><path d="M1976.78 230.738 2302.13 230.738 2302.13 409.392 1976.78 409.392Z" fill="#CFD5EA" fill-rule="evenodd"/><path d="M2302.13 230.738 2627.48 230.738 2627.48 409.392 2302.13 409.392Z" fill="#CFD5EA" fill-rule="evenodd"/><path d="M1459.02 409.392 1694.42 409.392 1694.42 1124.01 1459.02 1124.01Z" fill="#4472C4" fill-rule="evenodd"/><path d="M1694.42 409.392 1976.78 409.392 1976.78 588.046 1694.42 588.046Z" fill="#E9EBF5" fill-rule="evenodd"/><path d="M1976.78 409.392 2302.13 409.392 2302.13 588.046 1976.78 588.046Z" fill="#E9EBF5" fill-rule="evenodd"/><path d="M2302.13 409.392 2627.48 409.392 2627.48 588.046 2302.13 588.046Z" fill="#E9EBF5" fill-rule="evenodd"/><path d="M1694.42 588.046 1976.78 588.046 1976.78 766.7 1694.42 766.7Z" fill="#CFD5EA" fill-rule="evenodd"/><path d="M1976.78 588.046 2302.13 588.046 2302.13 766.7 1976.78 766.7Z" fill="#CFD5EA" fill-rule="evenodd"/><path d="M2302.13 588.046 2627.48 588.046 2627.48 766.7 2302.13 766.7Z" fill="#CFD5EA" fill-rule="evenodd"/><path d="M1694.42 766.7 1976.78 766.7 1976.78 945.354 1694.42 945.354Z" fill="#E9EBF5" fill-rule="evenodd"/><path d="M1976.78 766.7 2302.13 766.7 2302.13 945.354 1976.78 945.354Z" fill="#E9EBF5" fill-rule="evenodd"/><path d="M2302.13 766.7 2627.48 766.7 2627.48 945.354 2302.13 945.354Z" fill="#E9EBF5" fill-rule="evenodd"/><path d="M1694.42 945.354 1976.78 945.354 1976.78 1124.01 1694.42 1124.01Z" fill="#CFD5EA" fill-rule="evenodd"/><path d="M1976.78 945.354 2302.13 945.354 2302.13 1124.01 1976.78 1124.01Z" fill="#CFD5EA" fill-rule="evenodd"/><path d="M2302.13 945.354 2627.48 945.354 2627.48 1124.01 2302.13 1124.01Z" fill="#CFD5EA" fill-rule="evenodd"/><path d="M1459.02 1124.01 1694.42 1124.01 1694.42 1659.97 1459.02 1659.97Z" fill="#4472C4" fill-rule="evenodd"/><path d="M1694.42 1124.01 1976.78 1124.01 1976.78 1302.66 1694.42 1302.66Z" fill="#E9EBF5" fill-rule="evenodd"/><path d="M1976.78 1124.01 2302.13 1124.01 2302.13 1302.66 1976.78 1302.66Z" fill="#E9EBF5" fill-rule="evenodd"/><path d="M2302.13 1124.01 2627.48 1124.01 2627.48 1302.66 2302.13 1302.66Z" fill="#E9EBF5" fill-rule="evenodd"/><path d="M1694.42 1302.66 1976.78 1302.66 1976.78 1481.32 1694.42 1481.32Z" fill="#CFD5EA" fill-rule="evenodd"/><path d="M1976.78 1302.66 2302.13 1302.66 2302.13 1481.32 1976.78 1481.32Z" fill="#CFD5EA" fill-rule="evenodd"/><path d="M2302.13 1302.66 2627.48 1302.66 2627.48 1481.32 2302.13 1481.32Z" fill="#CFD5EA" fill-rule="evenodd"/><path d="M1694.42 1481.32 1976.78 1481.32 1976.78 1659.97 1694.42 1659.97Z" fill="#E9EBF5" fill-rule="evenodd"/><path d="M1976.78 1481.32 2302.13 1481.32 2302.13 1659.97 1976.78 1659.97Z" fill="#E9EBF5" fill-rule="evenodd"/><path d="M2302.13 1481.32 2627.48 1481.32 2627.48 1659.97 2302.13 1659.97Z" fill="#E9EBF5" fill-rule="evenodd"/><path d="M1694.42 87.3118 1694.42 1662.26" stroke="#FFFFFF" stroke-width="4.58333" stroke-linejoin="round" stroke-miterlimit="10" fill="none" fill-rule="evenodd"/><path d="M1976.78 87.3118 1976.78 1662.26" stroke="#FFFFFF" stroke-width="4.58333" stroke-linejoin="round" stroke-miterlimit="10" fill="none" fill-rule="evenodd"/><path d="M2302.13 87.3118 2302.13 1662.26" stroke="#FFFFFF" stroke-width="4.58333" stroke-linejoin="round" stroke-miterlimit="10" fill="none" fill-rule="evenodd"/><path d="M1456.73 230.738 2629.77 230.738" stroke="#FFFFFF" stroke-width="13.75" stroke-linejoin="round" stroke-miterlimit="10" fill="none" fill-rule="evenodd"/><path d="M1456.73 409.392 2629.77 409.392" stroke="#FFFFFF" stroke-width="4.58333" stroke-linejoin="round" stroke-miterlimit="10" fill="none" fill-rule="evenodd"/><path d="M1692.13 588.046 2629.77 588.046" stroke="#FFFFFF" stroke-width="4.58333" stroke-linejoin="round" stroke-miterlimit="10" fill="none" fill-rule="evenodd"/><path d="M1692.13 766.7 2629.77 766.7" stroke="#FFFFFF" stroke-width="4.58333" stroke-linejoin="round" stroke-miterlimit="10" fill="none" fill-rule="evenodd"/><path d="M1692.13 945.354 2629.77 945.354" stroke="#FFFFFF" stroke-width="4.58333" stroke-linejoin="round" stroke-miterlimit="10" fill="none" fill-rule="evenodd"/><path d="M1456.73 1124.01 2629.77 1124.01" stroke="#FFFFFF" stroke-width="4.58333" stroke-linejoin="round" stroke-miterlimit="10" fill="none" fill-rule="evenodd"/><path d="M1692.13 1302.66 2629.77 1302.66" stroke="#FFFFFF" stroke-width="4.58333" stroke-linejoin="round" stroke-miterlimit="10" fill="none" fill-rule="evenodd"/><path d="M1692.13 1481.32 2629.77 1481.32" stroke="#FFFFFF" stroke-width="4.58333" stroke-linejoin="round" stroke-miterlimit="10" fill="none" fill-rule="evenodd"/><path d="M1459.02 87.3118 1459.02 1662.26" stroke="#FFFFFF" stroke-width="4.58333" stroke-linejoin="round" stroke-miterlimit="10" fill="none" fill-rule="evenodd"/><path d="M2627.48 87.3118 2627.48 1662.26" stroke="#FFFFFF" stroke-width="4.58333" stroke-linejoin="round" stroke-miterlimit="10" fill="none" fill-rule="evenodd"/><path d="M1456.73 89.6034 2629.77 89.6034" stroke="#FFFFFF" stroke-width="4.58333" stroke-linejoin="round" stroke-miterlimit="10" fill="none" fill-rule="evenodd"/><path d="M1456.73 1659.97 2629.77 1659.97" stroke="#FFFFFF" stroke-width="4.58333" stroke-linejoin="round" stroke-miterlimit="10" fill="none" fill-rule="evenodd"/><text fill="#FFFFFF" font-family="DengXian,DengXian_MSFontService,sans-serif" font-weight="700" font-size="32" transform="matrix(1 0 0 1 2402.93 172)">Location</text><text fill="#FFFFFF" font-family="DengXian,DengXian_MSFontService,sans-serif" font-weight="700" font-size="32" transform="matrix(1 0 0 1 2009.97 172)">Purpose/Function</text><text fill="#FFFFFF" font-family="DengXian,DengXian_MSFontService,sans-serif" font-weight="700" font-size="32" transform="matrix(1 0 0 1 1799.51 172)">Time</text><text fill="#FFFFFF" font-family="DengXian,DengXian_MSFontService,sans-serif" font-weight="700" font-size="32" transform="matrix(1 0 0 1 1542.63 172)">Date</text><g><text font-family="DengXian,DengXian_MSFontService,sans-serif" font-weight="400" font-size="32" transform="matrix(1 0 0 1 2316.99 312)">DoubleTree by Hilton </text></g><text font-family="DengXian,DengXian_MSFontService,sans-serif" font-weight="400" font-size="32" transform="matrix(1 0 0 1 2369.7 350)">Kuala Lumpur</text><text font-family="DengXian,DengXian_MSFontService,sans-serif" font-weight="400" font-size="32" transform="matrix(1 0 0 1 2007.97 332)">Onsite Registration</text><text font-family="DengXian,DengXian_MSFontService,sans-serif" font-weight="400" font-size="32" transform="matrix(1 0 0 1 1751.95 332)">14:00</text><text font-family="DengXian,DengXian_MSFontService,sans-serif" font-weight="400" font-size="32" transform="matrix(1 0 0 1 1827.58 332)">-</text><text font-family="DengXian,DengXian_MSFontService,sans-serif" font-weight="400" font-size="32" transform="matrix(1 0 0 1 1843.62 332)">20:00</text><text fill="#FFFFFF" font-family="DengXian,DengXian_MSFontService,sans-serif" font-weight="700" font-size="32" transform="matrix(1 0 0 1 1486.78 332)">07 July 2024</text><g><text font-family="DengXian,DengXian_MSFontService,sans-serif" font-weight="400" font-size="32" transform="matrix(1 0 0 1 2316.99 491)">DoubleTree by Hilton </text></g><text font-family="DengXian,DengXian_MSFontService,sans-serif" font-weight="400" font-size="32" transform="matrix(1 0 0 1 2369.7 529)">Kuala Lumpur</text><text font-family="DengXian,DengXian_MSFontService,sans-serif" font-weight="400" font-size="32" transform="matrix(1 0 0 1 2000.52 472)">Opening Ceremony,</text><text font-family="DengXian,DengXian_MSFontService,sans-serif" font-weight="400" font-size="32" transform="matrix(1 0 0 1 2046.93 510)">Group Photo,</text><text font-family="DengXian,DengXian_MSFontService,sans-serif" font-weight="400" font-size="32" transform="matrix(1 0 0 1 2027.15 549)">Plenary Lectures</text><text font-family="DengXian,DengXian_MSFontService,sans-serif" font-weight="400" font-size="32" transform="matrix(1 0 0 1 1751.95 510)">08:00</text><text font-family="DengXian,DengXian_MSFontService,sans-serif" font-weight="400" font-size="32" transform="matrix(1 0 0 1 1827.58 510)">-</text><text font-family="DengXian,DengXian_MSFontService,sans-serif" font-weight="400" font-size="32" transform="matrix(1 0 0 1 1843.62 510)">12:00</text><text fill="#FFFFFF" font-family="DengXian,DengXian_MSFontService,sans-serif" font-weight="700" font-size="32" transform="matrix(1 0 0 1 1486.78 778)">08 July 2024</text><g><text font-family="DengXian,DengXian_MSFontService,sans-serif" font-weight="400" font-size="32" transform="matrix(1 0 0 1 2316.99 670)">DoubleTree by Hilton </text></g><text font-family="DengXian,DengXian_MSFontService,sans-serif" font-weight="400" font-size="32" transform="matrix(1 0 0 1 2369.7 708)">Kuala Lumpur</text><text font-family="DengXian,DengXian_MSFontService,sans-serif" font-weight="400" font-size="32" transform="matrix(1 0 0 1 2098.2 689)">Lunch</text><text font-family="DengXian,DengXian_MSFontService,sans-serif" font-weight="400" font-size="32" transform="matrix(1 0 0 1 1751.95 689)">12:00</text><text font-family="DengXian,DengXian_MSFontService,sans-serif" font-weight="400" font-size="32" transform="matrix(1 0 0 1 1827.58 689)">-</text><text font-family="DengXian,DengXian_MSFontService,sans-serif" font-weight="400" font-size="32" transform="matrix(1 0 0 1 1843.62 689)">13:30</text><text font-family="DengXian,DengXian_MSFontService,sans-serif" font-weight="400" font-size="32" transform="matrix(1 0 0 1 2387.76 829)">Rooms 1</text><text font-family="DengXian,DengXian_MSFontService,sans-serif" font-weight="400" font-size="32" transform="matrix(1 0 0 1 2508.64 829)">-</text><text font-family="DengXian,DengXian_MSFontService,sans-serif" font-weight="400" font-size="32" transform="matrix(1 0 0 1 2524.68 829)">6</text><g><text font-family="DengXian,DengXian_MSFontService,sans-serif" font-weight="400" font-size="32" transform="matrix(1 0 0 1 2316.99 867)">DoubleTree by Hilton </text></g><text font-family="DengXian,DengXian_MSFontService,sans-serif" font-weight="400" font-size="32" transform="matrix(1 0 0 1 2369.7 906)">Kuala Lumpur</text><text font-family="DengXian,DengXian_MSFontService,sans-serif" font-weight="400" font-size="32" transform="matrix(1 0 0 1 2021.43 868)">Academic Report</text><text font-family="DengXian,DengXian_MSFontService,sans-serif" font-weight="400" font-size="32" transform="matrix(1 0 0 1 1751.95 868)">14:00</text><text font-family="DengXian,DengXian_MSFontService,sans-serif" font-weight="400" font-size="32" transform="matrix(1 0 0 1 1827.58 868)">-</text><text font-family="DengXian,DengXian_MSFontService,sans-serif" font-weight="400" font-size="32" transform="matrix(1 0 0 1 1843.62 868)">18:00</text><g><text font-family="DengXian,DengXian_MSFontService,sans-serif" font-weight="400" font-size="32" transform="matrix(1 0 0 1 2316.99 1027)">DoubleTree by Hilton </text></g><text font-family="DengXian,DengXian_MSFontService,sans-serif" font-weight="400" font-size="32" transform="matrix(1 0 0 1 2369.7 1065)">Kuala Lumpur</text><text font-family="DengXian,DengXian_MSFontService,sans-serif" font-weight="400" font-size="32" transform="matrix(1 0 0 1 2082.16 1046)">Banquet</text><text font-family="DengXian,DengXian_MSFontService,sans-serif" font-weight="400" font-size="32" transform="matrix(1 0 0 1 1751.95 1046)">19:00</text><text font-family="DengXian,DengXian_MSFontService,sans-serif" font-weight="400" font-size="32" transform="matrix(1 0 0 1 1827.58 1046)">-</text><text font-family="DengXian,DengXian_MSFontService,sans-serif" font-weight="400" font-size="32" transform="matrix(1 0 0 1 1843.62 1046)">21:00</text><text font-family="DengXian,DengXian_MSFontService,sans-serif" font-weight="400" font-size="32" transform="matrix(1 0 0 1 2387.76 1187)">Rooms 1</text><text font-family="DengXian,DengXian_MSFontService,sans-serif" font-weight="400" font-size="32" transform="matrix(1 0 0 1 2508.64 1187)">-</text><text font-family="DengXian,DengXian_MSFontService,sans-serif" font-weight="400" font-size="32" transform="matrix(1 0 0 1 2524.68 1187)">6</text><g><text font-family="DengXian,DengXian_MSFontService,sans-serif" font-weight="400" font-size="32" transform="matrix(1 0 0 1 2316.99 1225)">DoubleTree by Hilton </text></g><text font-family="DengXian,DengXian_MSFontService,sans-serif" font-weight="400" font-size="32" transform="matrix(1 0 0 1 2369.7 1264)">Kuala Lumpur</text><text font-family="DengXian,DengXian_MSFontService,sans-serif" font-weight="400" font-size="32" transform="matrix(1 0 0 1 2021.43 1225)">Academic Report</text><text font-family="DengXian,DengXian_MSFontService,sans-serif" font-weight="400" font-size="32" transform="matrix(1 0 0 1 1751.95 1225)">08:00</text><text font-family="DengXian,DengXian_MSFontService,sans-serif" font-weight="400" font-size="32" transform="matrix(1 0 0 1 1827.58 1225)">-</text><text font-family="DengXian,DengXian_MSFontService,sans-serif" font-weight="400" font-size="32" transform="matrix(1 0 0 1 1843.62 1225)">12:00</text><text fill="#FFFFFF" font-family="DengXian,DengXian_MSFontService,sans-serif" font-weight="700" font-size="32" transform="matrix(1 0 0 1 1486.78 1404)">09 July 2024</text><g><text font-family="DengXian,DengXian_MSFontService,sans-serif" font-weight="400" font-size="32" transform="matrix(1 0 0 1 2316.99 1384)">DoubleTree by Hilton </text></g><text font-family="DengXian,DengXian_MSFontService,sans-serif" font-weight="400" font-size="32" transform="matrix(1 0 0 1 2369.7 1422)">Kuala Lumpur</text><text font-family="DengXian,DengXian_MSFontService,sans-serif" font-weight="400" font-size="32" transform="matrix(1 0 0 1 2098.2 1404)">Lunch</text><text font-family="DengXian,DengXian_MSFontService,sans-serif" font-weight="400" font-size="32" transform="matrix(1 0 0 1 1751.95 1404)">12:00</text><text font-family="DengXian,DengXian_MSFontService,sans-serif" font-weight="400" font-size="32" transform="matrix(1 0 0 1 1827.58 1404)">-</text><text font-family="DengXian,DengXian_MSFontService,sans-serif" font-weight="400" font-size="32" transform="matrix(1 0 0 1 1843.62 1404)">13:30</text><text font-family="DengXian,DengXian_MSFontService,sans-serif" font-weight="400" font-size="32" transform="matrix(1 0 0 1 2387.76 1544)">Rooms 1</text><text font-family="DengXian,DengXian_MSFontService,sans-serif" font-weight="400" font-size="32" transform="matrix(1 0 0 1 2508.64 1544)">-</text><text font-family="DengXian,DengXian_MSFontService,sans-serif" font-weight="400" font-size="32" transform="matrix(1 0 0 1 2524.68 1544)">6</text><g><text font-family="DengXian,DengXian_MSFontService,sans-serif" font-weight="400" font-size="32" transform="matrix(1 0 0 1 2316.99 1582)">DoubleTree by Hilton </text></g><text font-family="DengXian,DengXian_MSFontService,sans-serif" font-weight="400" font-size="32" transform="matrix(1 0 0 1 2369.7 1621)">Kuala Lumpur</text><text font-family="DengXian,DengXian_MSFontService,sans-serif" font-weight="400" font-size="32" transform="matrix(1 0 0 1 2021.43 1582)">Academic Report</text><text font-family="DengXian,DengXian_MSFontService,sans-serif" font-weight="400" font-size="32" transform="matrix(1 0 0 1 1751.95 1582)">14:00</text><text font-family="DengXian,DengXian_MSFontService,sans-serif" font-weight="400" font-size="32" transform="matrix(1 0 0 1 1827.58 1582)">-</text><text font-family="DengXian,DengXian_MSFontService,sans-serif" font-weight="400" font-size="32" transform="matrix(1 0 0 1 1843.62 1582)">18:00</text></g></svg>