<svg width="4220" height="5329" xmlns="http://www.w3.org/2000/svg" xmlns:xlink="http://www.w3.org/1999/xlink" xml:space="preserve" overflow="hidden"><defs><clipPath id="clip0"><rect x="93" y="-253" width="4220" height="5329"/></clipPath><clipPath id="clip1"><rect x="3452" y="-819" width="852" height="2194"/></clipPath><clipPath id="clip2"><rect x="3452" y="-423" width="852" height="2194"/></clipPath><clipPath id="clip3"><rect x="3452" y="-27" width="852" height="2194"/></clipPath><clipPath id="clip4"><rect x="3452" y="-209" width="852" height="3349"/></clipPath><clipPath id="clip5"><rect x="3452" y="765" width="852" height="2194"/></clipPath><clipPath id="clip6"><rect x="3452" y="583" width="852" height="3349"/></clipPath><clipPath id="clip7"><rect x="3452" y="1557" width="852" height="2193"/></clipPath><clipPath id="clip8"><rect x="3452" y="1375" width="852" height="3349"/></clipPath><clipPath id="clip9"><rect x="3452" y="2349" width="852" height="2193"/></clipPath><clipPath id="clip10"><rect x="3452" y="2662" width="852" height="2194"/></clipPath><clipPath id="clip11"><rect x="3452" y="2976" width="852" height="2193"/></clipPath><clipPath id="clip12"><rect x="3452" y="3289" width="852" height="2194"/></clipPath><clipPath id="clip13"><rect x="2022" y="3107" width="1431" height="3349"/></clipPath></defs><g clip-path="url(#clip0)" transform="translate(-93 253)"><path d="M96.2496-250.155 977.969-250.155 977.969 121.095 96.2496 121.095Z" fill="#4472C4" fill-rule="evenodd"/><path d="M977.969-250.155 2022.11-250.155 2022.11 121.095 977.969 121.095Z" fill="#4472C4" fill-rule="evenodd"/><path d="M2022.11-250.155 3452.97-250.155 3452.97 121.095 2022.11 121.095Z" fill="#4472C4" fill-rule="evenodd"/><path d="M3452.97-250.155 4303.75-250.155 4303.75 121.095 3452.97 121.095Z" fill="#4472C4" fill-rule="evenodd"/><path d="M96.2496 121.095 977.969 121.095 977.969 434.545 96.2496 434.545Z" fill="#4472C4" fill-rule="evenodd"/><path d="M977.969 121.095 2022.11 121.095 2022.11 434.545 977.969 434.545Z" fill="#CFD5EA" fill-rule="evenodd"/><path d="M2022.11 121.095 3452.97 121.095 3452.97 434.545 2022.11 434.545Z" fill="#CFD5EA" fill-rule="evenodd"/><path d="M3452.97 121.095 4303.75 121.095 4303.75 434.545 3452.97 434.545Z" fill="#CFD5EA" fill-rule="evenodd"/><path d="M96.2496 434.545 977.969 434.545 977.969 2018.35 96.2496 2018.35Z" fill="#4472C4" fill-rule="evenodd"/><path d="M977.969 434.545 2022.11 434.545 2022.11 912.996 977.969 912.996Z" fill="#E9EBF5" fill-rule="evenodd"/><path d="M2022.11 434.545 3452.97 434.545 3452.97 912.996 2022.11 912.996Z" fill="#E9EBF5" fill-rule="evenodd"/><path d="M3452.97 434.545 4303.75 434.545 4303.75 912.996 3452.97 912.996Z" fill="#E9EBF5" fill-rule="evenodd"/><path d="M977.969 912.996 2022.11 912.996 2022.11 1226.45 977.969 1226.45Z" fill="#CFD5EA" fill-rule="evenodd"/><path d="M2022.11 912.996 3452.97 912.996 3452.97 1226.45 2022.11 1226.45Z" fill="#CFD5EA" fill-rule="evenodd"/><path d="M3452.97 912.996 4303.75 912.996 4303.75 1226.45 3452.97 1226.45Z" fill="#CFD5EA" fill-rule="evenodd"/><path d="M977.969 1226.45 2022.11 1226.45 2022.11 1704.9 977.969 1704.9Z" fill="#E9EBF5" fill-rule="evenodd"/><path d="M2022.11 1226.45 3452.97 1226.45 3452.97 1704.9 2022.11 1704.9Z" fill="#E9EBF5" fill-rule="evenodd"/><path d="M3452.97 1226.45 4303.75 1226.45 4303.75 1704.9 3452.97 1704.9Z" fill="#E9EBF5" fill-rule="evenodd"/><path d="M977.969 1704.9 2022.11 1704.9 2022.11 2018.35 977.969 2018.35Z" fill="#CFD5EA" fill-rule="evenodd"/><path d="M2022.11 1704.9 3452.97 1704.9 3452.97 2018.35 2022.11 2018.35Z" fill="#CFD5EA" fill-rule="evenodd"/><path d="M3452.97 1704.9 4303.75 1704.9 4303.75 2018.35 3452.97 2018.35Z" fill="#CFD5EA" fill-rule="evenodd"/><path d="M96.2496 2018.35 977.969 2018.35 977.969 3288.7 96.2496 3288.7Z" fill="#4472C4" fill-rule="evenodd"/><path d="M977.969 2018.35 2022.11 2018.35 2022.11 2496.8 977.969 2496.8Z" fill="#E9EBF5" fill-rule="evenodd"/><path d="M2022.11 2018.35 3452.97 2018.35 3452.97 2496.8 2022.11 2496.8Z" fill="#E9EBF5" fill-rule="evenodd"/><path d="M3452.97 2018.35 4303.75 2018.35 4303.75 2496.8 3452.97 2496.8Z" fill="#E9EBF5" fill-rule="evenodd"/><path d="M977.969 2496.8 2022.11 2496.8 2022.11 2810.25 977.969 2810.25Z" fill="#CFD5EA" fill-rule="evenodd"/><path d="M2022.11 2496.8 3452.97 2496.8 3452.97 2810.25 2022.11 2810.25Z" fill="#CFD5EA" fill-rule="evenodd"/><path d="M3452.97 2496.8 4303.75 2496.8 4303.75 2810.25 3452.97 2810.25Z" fill="#CFD5EA" fill-rule="evenodd"/><path d="M977.969 2810.25 2022.11 2810.25 2022.11 3288.7 977.969 3288.7Z" fill="#E9EBF5" fill-rule="evenodd"/><path d="M2022.11 2810.25 3452.97 2810.25 3452.97 3288.7 2022.11 3288.7Z" fill="#E9EBF5" fill-rule="evenodd"/><path d="M3452.97 2810.25 4303.75 2810.25 4303.75 3288.7 3452.97 3288.7Z" fill="#E9EBF5" fill-rule="evenodd"/><path d="M96.2496 3288.7 977.969 3288.7 977.969 4542.5 96.2496 4542.5Z" fill="#4472C4" fill-rule="evenodd"/><path d="M977.969 3288.7 2022.11 3288.7 2022.11 3602.15 977.969 3602.15Z" fill="#CFD5EA" fill-rule="evenodd"/><path d="M2022.11 3288.7 3452.97 3288.7 3452.97 3602.15 2022.11 3602.15Z" fill="#CFD5EA" fill-rule="evenodd"/><path d="M3452.97 3288.7 4303.75 3288.7 4303.75 3602.15 3452.97 3602.15Z" fill="#CFD5EA" fill-rule="evenodd"/><path d="M977.969 3602.15 2022.11 3602.15 2022.11 3915.6 977.969 3915.6Z" fill="#E9EBF5" fill-rule="evenodd"/><path d="M2022.11 3602.15 3452.97 3602.15 3452.97 3915.6 2022.11 3915.6Z" fill="#E9EBF5" fill-rule="evenodd"/><path d="M3452.97 3602.15 4303.75 3602.15 4303.75 3915.6 3452.97 3915.6Z" fill="#E9EBF5" fill-rule="evenodd"/><path d="M977.969 3915.6 2022.11 3915.6 2022.11 4229.05 977.969 4229.05Z" fill="#CFD5EA" fill-rule="evenodd"/><path d="M2022.11 3915.6 3452.97 3915.6 3452.97 4229.05 2022.11 4229.05Z" fill="#CFD5EA" fill-rule="evenodd"/><path d="M3452.97 3915.6 4303.75 3915.6 4303.75 4229.05 3452.97 4229.05Z" fill="#CFD5EA" fill-rule="evenodd"/><path d="M977.969 4229.05 2022.11 4229.05 2022.11 4542.5 977.969 4542.5Z" fill="#E9EBF5" fill-rule="evenodd"/><path d="M2022.11 4229.05 3452.97 4229.05 3452.97 4542.5 2022.11 4542.5Z" fill="#E9EBF5" fill-rule="evenodd"/><path d="M3452.97 4229.05 4303.75 4229.05 4303.75 4542.5 3452.97 4542.5Z" fill="#E9EBF5" fill-rule="evenodd"/><path d="M96.2496 4542.5 977.969 4542.5 977.969 5020.95 96.2496 5020.95Z" fill="#4472C4" fill-rule="evenodd"/><path d="M977.969 4542.5 2022.11 4542.5 2022.11 5020.95 977.969 5020.95Z" fill="#CFD5EA" fill-rule="evenodd"/><path d="M2022.11 4542.5 3452.97 4542.5 3452.97 5020.95 2022.11 5020.95Z" fill="#CFD5EA" fill-rule="evenodd"/><path d="M3452.97 4542.5 4303.75 4542.5 4303.75 5020.95 3452.97 5020.95Z" fill="#CFD5EA" fill-rule="evenodd"/><path d="M977.969-252.446 977.969 5023.24" stroke="#FFFFFF" stroke-width="4.58333" stroke-linejoin="round" stroke-miterlimit="10" fill="none" fill-rule="evenodd"/><path d="M2022.11-252.446 2022.11 5023.24" stroke="#FFFFFF" stroke-width="4.58333" stroke-linejoin="round" stroke-miterlimit="10" fill="none" fill-rule="evenodd"/><path d="M3452.97-252.446 3452.97 5023.24" stroke="#FFFFFF" stroke-width="4.58333" stroke-linejoin="round" stroke-miterlimit="10" fill="none" fill-rule="evenodd"/><path d="M93.958 121.095 4306.04 121.095" stroke="#FFFFFF" stroke-width="13.75" stroke-linejoin="round" stroke-miterlimit="10" fill="none" fill-rule="evenodd"/><path d="M93.958 434.545 4306.04 434.545" stroke="#FFFFFF" stroke-width="4.58333" stroke-linejoin="round" stroke-miterlimit="10" fill="none" fill-rule="evenodd"/><path d="M975.677 912.996 4306.04 912.996" stroke="#FFFFFF" stroke-width="4.58333" stroke-linejoin="round" stroke-miterlimit="10" fill="none" fill-rule="evenodd"/><path d="M975.677 1226.45 4306.04 1226.45" stroke="#FFFFFF" stroke-width="4.58333" stroke-linejoin="round" stroke-miterlimit="10" fill="none" fill-rule="evenodd"/><path d="M975.677 1704.9 4306.04 1704.9" stroke="#FFFFFF" stroke-width="4.58333" stroke-linejoin="round" stroke-miterlimit="10" fill="none" fill-rule="evenodd"/><path d="M93.958 2018.35 4306.04 2018.35" stroke="#FFFFFF" stroke-width="4.58333" stroke-linejoin="round" stroke-miterlimit="10" fill="none" fill-rule="evenodd"/><path d="M975.677 2496.8 4306.04 2496.8" stroke="#FFFFFF" stroke-width="4.58333" stroke-linejoin="round" stroke-miterlimit="10" fill="none" fill-rule="evenodd"/><path d="M975.677 2810.25 4306.04 2810.25" stroke="#FFFFFF" stroke-width="4.58333" stroke-linejoin="round" stroke-miterlimit="10" fill="none" fill-rule="evenodd"/><path d="M93.958 3288.7 4306.04 3288.7" stroke="#FFFFFF" stroke-width="4.58333" stroke-linejoin="round" stroke-miterlimit="10" fill="none" fill-rule="evenodd"/><path d="M975.677 3602.15 4306.04 3602.15" stroke="#FFFFFF" stroke-width="4.58333" stroke-linejoin="round" stroke-miterlimit="10" fill="none" fill-rule="evenodd"/><path d="M975.677 3915.6 4306.04 3915.6" stroke="#FFFFFF" stroke-width="4.58333" stroke-linejoin="round" stroke-miterlimit="10" fill="none" fill-rule="evenodd"/><path d="M975.677 4229.05 4306.04 4229.05" stroke="#FFFFFF" stroke-width="4.58333" stroke-linejoin="round" stroke-miterlimit="10" fill="none" fill-rule="evenodd"/><path d="M93.958 4542.5 4306.04 4542.5" stroke="#FFFFFF" stroke-width="4.58333" stroke-linejoin="round" stroke-miterlimit="10" fill="none" fill-rule="evenodd"/><path d="M96.2496-252.446 96.2496 5023.24" stroke="#FFFFFF" stroke-width="4.58333" stroke-linejoin="round" stroke-miterlimit="10" fill="none" fill-rule="evenodd"/><path d="M4303.75-252.446 4303.75 5023.24" stroke="#FFFFFF" stroke-width="4.58333" stroke-linejoin="round" stroke-miterlimit="10" fill="none" fill-rule="evenodd"/><path d="M93.958-250.155 4306.04-250.155" stroke="#FFFFFF" stroke-width="4.58333" stroke-linejoin="round" stroke-miterlimit="10" fill="none" fill-rule="evenodd"/><path d="M93.958 5020.95 4306.04 5020.95" stroke="#FFFFFF" stroke-width="4.58333" stroke-linejoin="round" stroke-miterlimit="10" fill="none" fill-rule="evenodd"/><text fill="#FFFFFF" font-family="DengXian,DengXian_MSFontService,sans-serif" font-weight="700" font-size="92" transform="matrix(1 0 0 1 3700.18 -33)">Location</text><text fill="#FFFFFF" font-family="DengXian,DengXian_MSFontService,sans-serif" font-weight="700" font-size="92" transform="matrix(1 0 0 1 2368.58 -33)">Purpose/Function</text><text fill="#FFFFFF" font-family="DengXian,DengXian_MSFontService,sans-serif" font-weight="700" font-size="92" transform="matrix(1 0 0 1 1397.77 -33)">Time</text><text fill="#FFFFFF" font-family="DengXian,DengXian_MSFontService,sans-serif" font-weight="700" font-size="92" transform="matrix(1 0 0 1 439.14 -33)">Date</text><g clip-path="url(#clip1)"><text font-family="DengXian,DengXian_MSFontService,sans-serif" font-weight="400" font-size="92" transform="matrix(1 0 0 1 3457.27 245)">DoubleTree by Hilton </text></g><text font-family="DengXian,DengXian_MSFontService,sans-serif" font-weight="400" font-size="92" transform="matrix(1 0 0 1 3606.8 410)">Kuala Lumpur</text><text font-family="DengXian,DengXian_MSFontService,sans-serif" font-weight="400" font-size="92" transform="matrix(1 0 0 1 2363.42 328)">Onsite Registration</text><text font-family="DengXian,DengXian_MSFontService,sans-serif" font-weight="400" font-size="92" transform="matrix(1 0 0 1 1264.57 328)">14:00</text><text font-family="DengXian,DengXian_MSFontService,sans-serif" font-weight="400" font-size="92" transform="matrix(1 0 0 1 1477.12 328)">-</text><text font-family="DengXian,DengXian_MSFontService,sans-serif" font-weight="400" font-size="92" transform="matrix(1 0 0 1 1522.96 328)">20:00</text><text fill="#FFFFFF" font-family="DengXian,DengXian_MSFontService,sans-serif" font-weight="700" font-size="92" transform="matrix(1 0 0 1 279.01 328)">07 July 2024</text><g clip-path="url(#clip2)"><text font-family="DengXian,DengXian_MSFontService,sans-serif" font-weight="400" font-size="92" transform="matrix(1 0 0 1 3457.27 641)">DoubleTree by Hilton </text></g><text font-family="DengXian,DengXian_MSFontService,sans-serif" font-weight="400" font-size="92" transform="matrix(1 0 0 1 3606.8 806)">Kuala Lumpur</text><text font-family="DengXian,DengXian_MSFontService,sans-serif" font-weight="400" font-size="92" transform="matrix(1 0 0 1 2340.79 559)">Opening Ceremony,</text><text font-family="DengXian,DengXian_MSFontService,sans-serif" font-weight="400" font-size="92" transform="matrix(1 0 0 1 2472.86 724)">Group Photo,</text><text font-family="DengXian,DengXian_MSFontService,sans-serif" font-weight="400" font-size="92" transform="matrix(1 0 0 1 2418.14 889)">Plenary Lectures</text><text font-family="DengXian,DengXian_MSFontService,sans-serif" font-weight="400" font-size="92" transform="matrix(1 0 0 1 1264.57 724)">08:00</text><text font-family="DengXian,DengXian_MSFontService,sans-serif" font-weight="400" font-size="92" transform="matrix(1 0 0 1 1477.12 724)">-</text><text font-family="DengXian,DengXian_MSFontService,sans-serif" font-weight="400" font-size="92" transform="matrix(1 0 0 1 1522.96 724)">12:00</text><text fill="#FFFFFF" font-family="DengXian,DengXian_MSFontService,sans-serif" font-weight="700" font-size="92" transform="matrix(1 0 0 1 279.01 1276)">08 July 2024</text><g clip-path="url(#clip3)"><text font-family="DengXian,DengXian_MSFontService,sans-serif" font-weight="400" font-size="92" transform="matrix(1 0 0 1 3457.27 1037)">DoubleTree by Hilton </text></g><text font-family="DengXian,DengXian_MSFontService,sans-serif" font-weight="400" font-size="92" transform="matrix(1 0 0 1 3606.8 1202)">Kuala Lumpur</text><text font-family="DengXian,DengXian_MSFontService,sans-serif" font-weight="400" font-size="92" transform="matrix(1 0 0 1 2620.09 1120)">Lunch</text><text font-family="DengXian,DengXian_MSFontService,sans-serif" font-weight="400" font-size="92" transform="matrix(1 0 0 1 1264.57 1120)">12:00</text><text font-family="DengXian,DengXian_MSFontService,sans-serif" font-weight="400" font-size="92" transform="matrix(1 0 0 1 1477.12 1120)">-</text><text font-family="DengXian,DengXian_MSFontService,sans-serif" font-weight="400" font-size="92" transform="matrix(1 0 0 1 1522.96 1120)">13:30</text><text font-family="DengXian,DengXian_MSFontService,sans-serif" font-weight="400" font-size="92" transform="matrix(1 0 0 1 3658.36 1351)">Rooms 1</text><text font-family="DengXian,DengXian_MSFontService,sans-serif" font-weight="400" font-size="92" transform="matrix(1 0 0 1 4004.4 1351)">-</text><text font-family="DengXian,DengXian_MSFontService,sans-serif" font-weight="400" font-size="92" transform="matrix(1 0 0 1 4050.23 1351)">6</text><g clip-path="url(#clip4)"><text font-family="DengXian,DengXian_MSFontService,sans-serif" font-weight="400" font-size="92" transform="matrix(1 0 0 1 3457.27 1516)">DoubleTree by Hilton </text></g><text font-family="DengXian,DengXian_MSFontService,sans-serif" font-weight="400" font-size="92" transform="matrix(1 0 0 1 3606.8 1681)">Kuala Lumpur</text><text font-family="DengXian,DengXian_MSFontService,sans-serif" font-weight="400" font-size="92" transform="matrix(1 0 0 1 2400.09 1516)">Academic Report</text><text font-family="DengXian,DengXian_MSFontService,sans-serif" font-weight="400" font-size="92" transform="matrix(1 0 0 1 1264.57 1516)">14:00</text><text font-family="DengXian,DengXian_MSFontService,sans-serif" font-weight="400" font-size="92" transform="matrix(1 0 0 1 1477.12 1516)">-</text><text font-family="DengXian,DengXian_MSFontService,sans-serif" font-weight="400" font-size="92" transform="matrix(1 0 0 1 1522.96 1516)">18:00</text><g clip-path="url(#clip5)"><text font-family="DengXian,DengXian_MSFontService,sans-serif" font-weight="400" font-size="92" transform="matrix(1 0 0 1 3457.27 1829)">DoubleTree by Hilton </text></g><text font-family="DengXian,DengXian_MSFontService,sans-serif" font-weight="400" font-size="92" transform="matrix(1 0 0 1 3606.8 1994)">Kuala Lumpur</text><text font-family="DengXian,DengXian_MSFontService,sans-serif" font-weight="400" font-size="92" transform="matrix(1 0 0 1 2574.26 1912)">Banquet</text><text font-family="DengXian,DengXian_MSFontService,sans-serif" font-weight="400" font-size="92" transform="matrix(1 0 0 1 1264.57 1912)">19:00</text><text font-family="DengXian,DengXian_MSFontService,sans-serif" font-weight="400" font-size="92" transform="matrix(1 0 0 1 1477.12 1912)">-</text><text font-family="DengXian,DengXian_MSFontService,sans-serif" font-weight="400" font-size="92" transform="matrix(1 0 0 1 1522.96 1912)">21:00</text><text font-family="DengXian,DengXian_MSFontService,sans-serif" font-weight="400" font-size="92" transform="matrix(1 0 0 1 3658.36 2143)">Rooms 1</text><text font-family="DengXian,DengXian_MSFontService,sans-serif" font-weight="400" font-size="92" transform="matrix(1 0 0 1 4004.4 2143)">-</text><text font-family="DengXian,DengXian_MSFontService,sans-serif" font-weight="400" font-size="92" transform="matrix(1 0 0 1 4050.23 2143)">6</text><g clip-path="url(#clip6)"><text font-family="DengXian,DengXian_MSFontService,sans-serif" font-weight="400" font-size="92" transform="matrix(1 0 0 1 3457.27 2308)">DoubleTree by Hilton </text></g><text font-family="DengXian,DengXian_MSFontService,sans-serif" font-weight="400" font-size="92" transform="matrix(1 0 0 1 3606.8 2473)">Kuala Lumpur</text><text font-family="DengXian,DengXian_MSFontService,sans-serif" font-weight="400" font-size="92" transform="matrix(1 0 0 1 2400.09 2308)">Academic Report</text><text font-family="DengXian,DengXian_MSFontService,sans-serif" font-weight="400" font-size="92" transform="matrix(1 0 0 1 1264.57 2308)">08:00</text><text font-family="DengXian,DengXian_MSFontService,sans-serif" font-weight="400" font-size="92" transform="matrix(1 0 0 1 1477.12 2308)">-</text><text font-family="DengXian,DengXian_MSFontService,sans-serif" font-weight="400" font-size="92" transform="matrix(1 0 0 1 1522.96 2308)">12:00</text><text fill="#FFFFFF" font-family="DengXian,DengXian_MSFontService,sans-serif" font-weight="700" font-size="92" transform="matrix(1 0 0 1 279.01 2704)">09 July 2024</text><g clip-path="url(#clip7)"><text font-family="DengXian,DengXian_MSFontService,sans-serif" font-weight="400" font-size="92" transform="matrix(1 0 0 1 3457.27 2621)">DoubleTree by Hilton </text></g><text font-family="DengXian,DengXian_MSFontService,sans-serif" font-weight="400" font-size="92" transform="matrix(1 0 0 1 3606.8 2786)">Kuala Lumpur</text><text font-family="DengXian,DengXian_MSFontService,sans-serif" font-weight="400" font-size="92" transform="matrix(1 0 0 1 2620.09 2704)">Lunch</text><text font-family="DengXian,DengXian_MSFontService,sans-serif" font-weight="400" font-size="92" transform="matrix(1 0 0 1 1264.57 2704)">12:00</text><text font-family="DengXian,DengXian_MSFontService,sans-serif" font-weight="400" font-size="92" transform="matrix(1 0 0 1 1477.12 2704)">-</text><text font-family="DengXian,DengXian_MSFontService,sans-serif" font-weight="400" font-size="92" transform="matrix(1 0 0 1 1522.96 2704)">13:30</text><text font-family="DengXian,DengXian_MSFontService,sans-serif" font-weight="400" font-size="92" transform="matrix(1 0 0 1 3658.36 2934)">Rooms 1</text><text font-family="DengXian,DengXian_MSFontService,sans-serif" font-weight="400" font-size="92" transform="matrix(1 0 0 1 4004.4 2934)">-</text><text font-family="DengXian,DengXian_MSFontService,sans-serif" font-weight="400" font-size="92" transform="matrix(1 0 0 1 4050.23 2934)">6</text><g clip-path="url(#clip8)"><text font-family="DengXian,DengXian_MSFontService,sans-serif" font-weight="400" font-size="92" transform="matrix(1 0 0 1 3457.27 3099)">DoubleTree by Hilton </text></g><text font-family="DengXian,DengXian_MSFontService,sans-serif" font-weight="400" font-size="92" transform="matrix(1 0 0 1 3606.8 3264)">Kuala Lumpur</text><text font-family="DengXian,DengXian_MSFontService,sans-serif" font-weight="400" font-size="92" transform="matrix(1 0 0 1 2400.09 3099)">Academic Report</text><text font-family="DengXian,DengXian_MSFontService,sans-serif" font-weight="400" font-size="92" transform="matrix(1 0 0 1 1264.57 3099)">14:00</text><text font-family="DengXian,DengXian_MSFontService,sans-serif" font-weight="400" font-size="92" transform="matrix(1 0 0 1 1477.12 3099)">-</text><text font-family="DengXian,DengXian_MSFontService,sans-serif" font-weight="400" font-size="92" transform="matrix(1 0 0 1 1522.96 3099)">18:00</text><g clip-path="url(#clip9)"><text font-family="DengXian,DengXian_MSFontService,sans-serif" font-weight="400" font-size="92" transform="matrix(1 0 0 1 3457.27 3413)">DoubleTree by Hilton </text></g><text font-family="DengXian,DengXian_MSFontService,sans-serif" font-weight="400" font-size="92" transform="matrix(1 0 0 1 3606.8 3578)">Kuala Lumpur</text><text font-family="DengXian,DengXian_MSFontService,sans-serif" font-weight="400" font-size="92" transform="matrix(1 0 0 1 2091.58 3495)">Academic/Committee Discussion</text><text font-family="DengXian,DengXian_MSFontService,sans-serif" font-weight="400" font-size="92" transform="matrix(1 0 0 1 1264.57 3495)">08:00</text><text font-family="DengXian,DengXian_MSFontService,sans-serif" font-weight="400" font-size="92" transform="matrix(1 0 0 1 1477.12 3495)">-</text><text font-family="DengXian,DengXian_MSFontService,sans-serif" font-weight="400" font-size="92" transform="matrix(1 0 0 1 1522.96 3495)">12:00</text><text fill="#FFFFFF" font-family="DengXian,DengXian_MSFontService,sans-serif" font-weight="700" font-size="92" transform="matrix(1 0 0 1 279.01 3966)">10 July 2024</text><g clip-path="url(#clip10)"><text font-family="DengXian,DengXian_MSFontService,sans-serif" font-weight="400" font-size="92" transform="matrix(1 0 0 1 3457.27 3726)">DoubleTree by Hilton </text></g><text font-family="DengXian,DengXian_MSFontService,sans-serif" font-weight="400" font-size="92" transform="matrix(1 0 0 1 3606.8 3891)">Kuala Lumpur</text><text font-family="DengXian,DengXian_MSFontService,sans-serif" font-weight="400" font-size="92" transform="matrix(1 0 0 1 2620.09 3809)">Lunch</text><text font-family="DengXian,DengXian_MSFontService,sans-serif" font-weight="400" font-size="92" transform="matrix(1 0 0 1 1264.57 3809)">12:00</text><text font-family="DengXian,DengXian_MSFontService,sans-serif" font-weight="400" font-size="92" transform="matrix(1 0 0 1 1477.12 3809)">-</text><text font-family="DengXian,DengXian_MSFontService,sans-serif" font-weight="400" font-size="92" transform="matrix(1 0 0 1 1522.96 3809)">13:30</text><g clip-path="url(#clip11)"><text font-family="DengXian,DengXian_MSFontService,sans-serif" font-weight="400" font-size="92" transform="matrix(1 0 0 1 3457.27 4040)">DoubleTree by Hilton </text></g><text font-family="DengXian,DengXian_MSFontService,sans-serif" font-weight="400" font-size="92" transform="matrix(1 0 0 1 3606.8 4205)">Kuala Lumpur</text><text font-family="DengXian,DengXian_MSFontService,sans-serif" font-weight="400" font-size="92" transform="matrix(1 0 0 1 2232.51 4040)">CMMM20244 Conference </text><text font-family="DengXian,DengXian_MSFontService,sans-serif" font-weight="400" font-size="92" transform="matrix(1 0 0 1 2343.38 4205)">Committee Meeting</text><text font-family="DengXian,DengXian_MSFontService,sans-serif" font-weight="400" font-size="92" transform="matrix(1 0 0 1 1264.57 4122)">14:00</text><text font-family="DengXian,DengXian_MSFontService,sans-serif" font-weight="400" font-size="92" transform="matrix(1 0 0 1 1477.12 4122)">-</text><text font-family="DengXian,DengXian_MSFontService,sans-serif" font-weight="400" font-size="92" transform="matrix(1 0 0 1 1522.96 4122)">15:00</text><g clip-path="url(#clip12)"><text font-family="DengXian,DengXian_MSFontService,sans-serif" font-weight="400" font-size="92" transform="matrix(1 0 0 1 3457.27 4353)">DoubleTree by Hilton </text></g><text font-family="DengXian,DengXian_MSFontService,sans-serif" font-weight="400" font-size="92" transform="matrix(1 0 0 1 3606.8 4518)">Kuala Lumpur</text><text font-family="DengXian,DengXian_MSFontService,sans-serif" font-weight="400" font-size="92" transform="matrix(1 0 0 1 2256.58 4353)">CMMM2024 Conference </text><text font-family="DengXian,DengXian_MSFontService,sans-serif" font-weight="400" font-size="92" transform="matrix(1 0 0 1 2135.69 4518)">Closing/Certificate Distribution</text><text font-family="DengXian,DengXian_MSFontService,sans-serif" font-weight="400" font-size="92" transform="matrix(1 0 0 1 1264.57 4436)">15:00</text><text font-family="DengXian,DengXian_MSFontService,sans-serif" font-weight="400" font-size="92" transform="matrix(1 0 0 1 1477.12 4436)">-</text><text font-family="DengXian,DengXian_MSFontService,sans-serif" font-weight="400" font-size="92" transform="matrix(1 0 0 1 1522.96 4436)">17:00</text><g><text font-family="DengXian,DengXian_MSFontService,sans-serif" font-weight="400" font-size="92" transform="matrix(1 0 0 1 3498.23 4667)">Universiti</text></g><g><text font-family="DengXian,DengXian_MSFontService,sans-serif" font-weight="400" font-size="92" transform="matrix(1 0 0 1 3884.37 4667)">Malaya &amp; </text></g><text font-family="DengXian,DengXian_MSFontService,sans-serif" font-weight="400" font-size="92" transform="matrix(1 0 0 1 3564.41 4832)">Universiti</text><text font-family="DengXian,DengXian_MSFontService,sans-serif" font-weight="400" font-size="92" transform="matrix(1 0 0 1 3950.56 4832)">Tunku</text><text font-family="DengXian,DengXian_MSFontService,sans-serif" font-weight="400" font-size="92" transform="matrix(1 0 0 1 3587.03 4997)">Abdul Rahman</text><text font-family="DengXian,DengXian_MSFontService,sans-serif" font-weight="400" font-size="92" transform="matrix(1 0 0 1 2299.84 4667)">Visit </text><text font-family="DengXian,DengXian_MSFontService,sans-serif" font-weight="400" font-size="92" transform="matrix(1 0 0 1 2488.9 4667)">Universiti</text><text font-family="DengXian,DengXian_MSFontService,sans-serif" font-weight="400" font-size="92" transform="matrix(1 0 0 1 2875.05 4667)">Malaya, </text><g><text font-family="DengXian,DengXian_MSFontService,sans-serif" font-weight="400" font-size="92" transform="matrix(1 0 0 1 2032.56 4832)">Universiti</text></g><text font-family="DengXian,DengXian_MSFontService,sans-serif" font-weight="400" font-size="92" transform="matrix(1 0 0 1 2418.71 4832)">Tunku</text><g clip-path="url(#clip13)"><text font-family="DengXian,DengXian_MSFontService,sans-serif" font-weight="400" font-size="92" transform="matrix(1 0 0 1 2685.69 4832)">Abdul Rahman and </text></g><text font-family="DengXian,DengXian_MSFontService,sans-serif" font-weight="400" font-size="92" transform="matrix(1 0 0 1 2233.09 4997)">Other Academic Activities </text><text font-family="DengXian,DengXian_MSFontService,sans-serif" font-weight="400" font-size="92" transform="matrix(1 0 0 1 1422.41 4832)">TBC</text><text fill="#FFFFFF" font-family="DengXian,DengXian_MSFontService,sans-serif" font-weight="700" font-size="92" transform="matrix(1 0 0 1 165 4832)">11 &amp; 12 July 2024</text></g></svg>